<?xml version="1.0" encoding="UTF-8" standalone="no"?>
<!DOCTYPE svg PUBLIC "-//W3C//DTD SVG 1.1//EN"
 "http://www.w3.org/Graphics/SVG/1.1/DTD/svg11.dtd">
<!-- Generated by graphviz version 2.43.0 (0)
 -->
<!-- Title: models_diagram Pages: 1 -->
<svg width="3498pt" height="465pt"
 viewBox="0.00 0.00 3498.00 465.00" xmlns="http://www.w3.org/2000/svg" xmlns:xlink="http://www.w3.org/1999/xlink">
<g id="graph0" class="graph" transform="scale(1 1) rotate(0) translate(4 461)">
<title>models_diagram</title>
<polygon fill="transparent" stroke="transparent" points="-4,4 -4,-461 3494,-461 3494,4 -4,4"/>
<!-- _diagram_info -->
<g id="node1" class="node">
<title>_diagram_info</title>
<text text-anchor="start" x="144.5" y="-442.6" font-family="Times,serif" font-size="13.00">Models diagram</text>
<text text-anchor="start" x="144.5" y="-428.6" font-family="Times,serif" font-size="13.00">Date: Dec 10 2020 &#45; 01:20</text>
<text text-anchor="start" x="144.5" y="-414.6" font-family="Times,serif" font-size="13.00">Migration version: 20190306002059</text>
<text text-anchor="start" x="144.5" y="-400.6" font-family="Times,serif" font-size="13.00">Generated by RailRoady 1.5.3</text>
<text text-anchor="start" x="144.5" y="-386.6" font-family="Times,serif" font-size="13.00">http://railroady.prestonlee.com</text>
</g>
<!-- Questionnaire -->
<g id="node2" class="node">
<title>Questionnaire</title>
<ellipse fill="none" stroke="black" cx="527" cy="-18" rx="76.09" ry="18"/>
<text text-anchor="middle" x="527" y="-14.3" font-family="Times,serif" font-size="14.00">Questionnaire</text>
</g>
<!-- Course -->
<g id="node3" class="node">
<title>Course</title>
<ellipse fill="none" stroke="black" cx="358" cy="-251" rx="43.59" ry="18"/>
<text text-anchor="middle" x="358" y="-247.3" font-family="Times,serif" font-size="14.00">Course</text>
</g>
<!-- Conversation -->
<g id="node4" class="node">
<title>Conversation</title>
<ellipse fill="none" stroke="black" cx="100" cy="-91" rx="72.29" ry="18"/>
<text text-anchor="middle" x="100" y="-87.3" font-family="Times,serif" font-size="14.00">Conversation</text>
</g>
<!-- Message -->
<g id="node9" class="node">
<title>Message</title>
<ellipse fill="none" stroke="black" cx="100" cy="-18" rx="51.99" ry="18"/>
<text text-anchor="middle" x="100" y="-14.3" font-family="Times,serif" font-size="14.00">Message</text>
</g>
<!-- Conversation&#45;&gt;Message -->
<g id="edge3" class="edge">
<title>Conversation&#45;&gt;Message</title>
<path fill="none" stroke="#9bfb56" d="M100,-64.79C100,-58.83 100,-52.45 100,-46.4"/>
<ellipse fill="none" stroke="#9bfb56" cx="100" cy="-68.81" rx="4" ry="4"/>
<polygon fill="#9bfb56" stroke="#9bfb56" points="100,-46.03 104.5,-36.03 100,-41.03 100,-36.03 100,-36.03 100,-36.03 100,-41.03 95.5,-36.03 100,-46.03 100,-46.03"/>
</g>
<!-- GeneralInfo -->
<g id="node5" class="node">
<title>GeneralInfo</title>
<ellipse fill="none" stroke="black" cx="687" cy="-18" rx="65.79" ry="18"/>
<text text-anchor="middle" x="687" y="-14.3" font-family="Times,serif" font-size="14.00">GeneralInfo</text>
</g>
<!-- ParentContact -->
<g id="node6" class="node">
<title>ParentContact</title>
<ellipse fill="none" stroke="black" cx="848" cy="-18" rx="77.19" ry="18"/>
<text text-anchor="middle" x="848" y="-14.3" font-family="Times,serif" font-size="14.00">ParentContact</text>
</g>
<!-- Foundation -->
<g id="node7" class="node">
<title>Foundation</title>
<ellipse fill="none" stroke="black" cx="329" cy="-91" rx="63.09" ry="18"/>
<text text-anchor="middle" x="329" y="-87.3" font-family="Times,serif" font-size="14.00">Foundation</text>
</g>
<!-- Medication -->
<g id="node8" class="node">
<title>Medication</title>
<ellipse fill="none" stroke="black" cx="371" cy="-18" rx="62.29" ry="18"/>
<text text-anchor="middle" x="371" y="-14.3" font-family="Times,serif" font-size="14.00">Medication</text>
</g>
<!-- Request -->
<g id="node10" class="node">
<title>Request</title>
<ellipse fill="none" stroke="black" cx="432" cy="-324" rx="48.99" ry="18"/>
<text text-anchor="middle" x="432" y="-320.3" font-family="Times,serif" font-size="14.00">Request</text>
</g>
<!-- Group -->
<g id="node11" class="node">
<title>Group</title>
<ellipse fill="none" stroke="black" cx="257" cy="-251" rx="39.79" ry="18"/>
<text text-anchor="middle" x="257" y="-247.3" font-family="Times,serif" font-size="14.00">Group</text>
</g>
<!-- User -->
<g id="node20" class="node">
<title>User</title>
<ellipse fill="none" stroke="black" cx="257" cy="-164" rx="33.29" ry="18"/>
<text text-anchor="middle" x="257" y="-160.3" font-family="Times,serif" font-size="14.00">User</text>
</g>
<!-- Group&#45;&gt;User -->
<g id="edge10" class="edge">
<title>Group&#45;&gt;User</title>
<path fill="none" stroke="#1c93a1" d="M257,-224.69C257,-214.51 257,-202.75 257,-192.37"/>
<ellipse fill="none" stroke="#1c93a1" cx="257" cy="-228.8" rx="4" ry="4"/>
<polygon fill="#1c93a1" stroke="#1c93a1" points="257,-192.18 261.5,-182.18 257,-187.18 257,-182.18 257,-182.18 257,-182.18 257,-187.18 252.5,-182.18 257,-192.18 257,-192.18"/>
<text text-anchor="middle" x="288.5" y="-203.8" font-family="Times,serif" font-size="14.00">students</text>
</g>
<!-- Allergy -->
<g id="node12" class="node">
<title>Allergy</title>
<ellipse fill="none" stroke="black" cx="230" cy="-18" rx="44.39" ry="18"/>
<text text-anchor="middle" x="230" y="-14.3" font-family="Times,serif" font-size="14.00">Allergy</text>
</g>
<!-- Ability -->
<g id="node13" class="node">
<title>Ability</title>
<polygon fill="none" stroke="black" points="685.5,-436 622.5,-436 622.5,-400 685.5,-400 685.5,-436"/>
<text text-anchor="middle" x="654" y="-414.3" font-family="Times,serif" font-size="14.00">Ability</text>
</g>
<!-- Level -->
<g id="node14" class="node">
<title>Level</title>
<ellipse fill="none" stroke="black" cx="291" cy="-324" rx="36" ry="18"/>
<text text-anchor="middle" x="291" y="-320.3" font-family="Times,serif" font-size="14.00">Level</text>
</g>
<!-- Level&#45;&gt;Course -->
<g id="edge14" class="edge">
<title>Level&#45;&gt;Course</title>
<path fill="none" stroke="#f18859" d="M311.54,-301.24C319.23,-293.08 328,-283.79 335.84,-275.49"/>
<ellipse fill="none" stroke="#f18859" cx="308.61" cy="-304.33" rx="4" ry="4"/>
<polygon fill="#f18859" stroke="#f18859" points="335.84,-275.48 345.98,-271.29 339.28,-271.84 342.71,-268.21 342.71,-268.21 342.71,-268.21 339.28,-271.84 339.43,-265.12 335.84,-275.48 335.84,-275.48"/>
</g>
<!-- Level&#45;&gt;Group -->
<g id="edge13" class="edge">
<title>Level&#45;&gt;Group</title>
<path fill="none" stroke="#06da73" d="M279.46,-298.9C276.26,-292.23 272.78,-284.95 269.53,-278.17"/>
<ellipse fill="none" stroke="#06da73" cx="281.21" cy="-302.57" rx="4" ry="4"/>
<polygon fill="#06da73" stroke="#06da73" points="269.32,-277.72 269.06,-266.76 267.16,-273.21 265,-268.71 265,-268.71 265,-268.71 267.16,-273.21 260.94,-270.65 269.32,-277.72 269.32,-277.72"/>
</g>
<!-- Certificate -->
<g id="node16" class="node">
<title>Certificate</title>
<ellipse fill="none" stroke="black" cx="673" cy="-251" rx="59.59" ry="18"/>
<text text-anchor="middle" x="673" y="-247.3" font-family="Times,serif" font-size="14.00">Certificate</text>
</g>
<!-- Level&#45;&gt;Certificate -->
<g id="edge15" class="edge">
<title>Level&#45;&gt;Certificate</title>
<path fill="none" stroke="#46b8a5" d="M331.46,-314.52C344.98,-311.73 360.13,-308.67 374,-306 457.4,-289.93 554.18,-272.71 614.51,-262.15"/>
<ellipse fill="none" stroke="#46b8a5" cx="327.2" cy="-315.4" rx="4" ry="4"/>
<ellipse fill="#46b8a5" stroke="#46b8a5" cx="618.47" cy="-261.45" rx="4" ry="4"/>
</g>
<!-- ApplicationRecord -->
<g id="node15" class="node">
<title>ApplicationRecord</title>
<ellipse fill="none" stroke="black" cx="509" cy="-418" rx="95.58" ry="18"/>
<text text-anchor="middle" x="509" y="-414.3" font-family="Times,serif" font-size="14.00">ApplicationRecord</text>
</g>
<!-- ApplicationRecord&#45;&gt;Questionnaire -->
<g id="edge1" class="edge">
<title>ApplicationRecord&#45;&gt;Questionnaire</title>
<path fill="none" stroke="black" d="M534.73,-400.65C556.78,-384.41 585,-357.32 585,-325 585,-325 585,-325 585,-90 585,-67.4 567.15,-48.03 551.26,-35.25"/>
</g>
<!-- ApplicationRecord&#45;&gt;Course -->
<g id="edge2" class="edge">
<title>ApplicationRecord&#45;&gt;Course</title>
<path fill="none" stroke="black" d="M461.12,-402.32C431.42,-390.71 395.03,-371.46 374,-342 358.6,-320.43 356.49,-288.7 356.87,-269.25"/>
</g>
<!-- ApplicationRecord&#45;&gt;Conversation -->
<g id="edge4" class="edge">
<title>ApplicationRecord&#45;&gt;Conversation</title>
<path fill="none" stroke="black" d="M473.28,-401.25C453.3,-393.16 427.71,-383.99 404,-379 345.8,-366.76 190.19,-387.59 137,-361 118.11,-351.56 106,-346.11 106,-325 106,-325 106,-325 106,-163 106,-144.57 103.97,-123.54 102.27,-109.18"/>
</g>
<!-- ApplicationRecord&#45;&gt;GeneralInfo -->
<g id="edge5" class="edge">
<title>ApplicationRecord&#45;&gt;GeneralInfo</title>
<path fill="none" stroke="black" d="M545.43,-401.36C565.1,-393.51 590.01,-384.52 613,-379 696.7,-358.9 799,-411.08 799,-325 799,-325 799,-325 799,-90 799,-58.11 766.22,-39.95 736.12,-29.99"/>
</g>
<!-- ApplicationRecord&#45;&gt;ParentContact -->
<g id="edge6" class="edge">
<title>ApplicationRecord&#45;&gt;ParentContact</title>
<path fill="none" stroke="black" d="M544.89,-401.3C564.62,-393.34 589.75,-384.26 613,-379 695.73,-360.29 724.2,-392.4 803,-361 827.12,-351.39 849,-350.96 849,-325 849,-325 849,-325 849,-90 849,-71.63 848.66,-50.59 848.38,-36.22"/>
</g>
<!-- ApplicationRecord&#45;&gt;Medication -->
<g id="edge7" class="edge">
<title>ApplicationRecord&#45;&gt;Medication</title>
<path fill="none" stroke="black" d="M520.82,-399.89C531.97,-382.04 547,-352.82 547,-325 547,-325 547,-325 547,-90 547,-78.33 537.13,-78.79 527,-73 492.41,-53.24 449.39,-39.02 417.29,-30.15"/>
</g>
<!-- ApplicationRecord&#45;&gt;Message -->
<g id="edge8" class="edge">
<title>ApplicationRecord&#45;&gt;Message</title>
<path fill="none" stroke="black" d="M473.29,-401.24C453.31,-393.15 427.72,-383.97 404,-379 315.35,-360.41 0,-415.58 0,-325 0,-325 0,-325 0,-90 0,-58.91 32.53,-40.19 60.48,-29.84"/>
</g>
<!-- ApplicationRecord&#45;&gt;Request -->
<g id="edge9" class="edge">
<title>ApplicationRecord&#45;&gt;Request</title>
<path fill="none" stroke="black" d="M494.88,-400.13C480.9,-383.42 459.63,-358.01 445.77,-341.46"/>
</g>
<!-- ApplicationRecord&#45;&gt;Group -->
<g id="edge11" class="edge">
<title>ApplicationRecord&#45;&gt;Group</title>
<path fill="none" stroke="black" d="M469.48,-401.45C449.95,-394.09 425.93,-385.51 404,-379 334.86,-358.47 290.81,-398.51 246,-342 229.47,-321.15 239.56,-288.61 248.33,-268.9"/>
</g>
<!-- ApplicationRecord&#45;&gt;Allergy -->
<g id="edge12" class="edge">
<title>ApplicationRecord&#45;&gt;Allergy</title>
<path fill="none" stroke="black" d="M472.22,-401.31C452.36,-393.45 427.21,-384.46 404,-379 360.64,-368.8 233.35,-377.92 207,-342 136.51,-245.9 198.54,-87.45 221.95,-35.83"/>
</g>
<!-- ApplicationRecord&#45;&gt;Level -->
<g id="edge16" class="edge">
<title>ApplicationRecord&#45;&gt;Level</title>
<path fill="none" stroke="black" d="M468.34,-401.54C448.96,-394.37 425.4,-385.92 404,-379 376.29,-370.04 367.21,-373.7 341,-361 329.45,-355.4 317.74,-347.14 308.56,-339.95"/>
</g>
<!-- ApplicationRecord&#45;&gt;Certificate -->
<g id="edge18" class="edge">
<title>ApplicationRecord&#45;&gt;Certificate</title>
<path fill="none" stroke="black" d="M541.69,-401.01C559.87,-391.1 582.15,-377.19 599,-361 628.03,-333.11 652.12,-292.05 664.34,-269.11"/>
</g>
<!-- EmergencyConn -->
<g id="node17" class="node">
<title>EmergencyConn</title>
<ellipse fill="none" stroke="black" cx="1030" cy="-18" rx="87.18" ry="18"/>
<text text-anchor="middle" x="1030" y="-14.3" font-family="Times,serif" font-size="14.00">EmergencyConn</text>
</g>
<!-- ApplicationRecord&#45;&gt;EmergencyConn -->
<g id="edge19" class="edge">
<title>ApplicationRecord&#45;&gt;EmergencyConn</title>
<path fill="none" stroke="black" d="M544.88,-401.24C564.6,-393.25 589.73,-384.18 613,-379 697.33,-360.24 998,-411.39 998,-325 998,-325 998,-325 998,-90 998,-70.12 1008.55,-49.66 1017.54,-35.84"/>
</g>
<!-- Signature -->
<g id="node18" class="node">
<title>Signature</title>
<ellipse fill="none" stroke="black" cx="1192" cy="-18" rx="56.59" ry="18"/>
<text text-anchor="middle" x="1192" y="-14.3" font-family="Times,serif" font-size="14.00">Signature</text>
</g>
<!-- ApplicationRecord&#45;&gt;Signature -->
<g id="edge20" class="edge">
<title>ApplicationRecord&#45;&gt;Signature</title>
<path fill="none" stroke="black" d="M544.33,-401.07C564.1,-392.93 589.45,-383.76 613,-379 672.43,-366.99 1156,-385.63 1156,-325 1156,-325 1156,-325 1156,-90 1156,-69.68 1167.87,-49.29 1177.98,-35.6"/>
</g>
<!-- JwtToken -->
<g id="node19" class="node">
<title>JwtToken</title>
<ellipse fill="none" stroke="black" cx="465" cy="-91" rx="53.09" ry="18"/>
<text text-anchor="middle" x="465" y="-87.3" font-family="Times,serif" font-size="14.00">JwtToken</text>
</g>
<!-- ApplicationRecord&#45;&gt;JwtToken -->
<g id="edge21" class="edge">
<title>ApplicationRecord&#45;&gt;JwtToken</title>
<path fill="none" stroke="black" d="M506.7,-399.98C499.11,-343.95 474.96,-165.59 467.33,-109.24"/>
</g>
<!-- ApplicationRecord&#45;&gt;User -->
<g id="edge28" class="edge">
<title>ApplicationRecord&#45;&gt;User</title>
<path fill="none" stroke="black" d="M471.71,-401.22C451.92,-393.44 426.99,-384.55 404,-379 328.83,-360.87 281.31,-403.16 234,-342 203.53,-302.61 192.7,-280.4 208,-233 214.61,-212.51 229.96,-192.98 241.73,-180.15"/>
</g>
<!-- Profile -->
<g id="node21" class="node">
<title>Profile</title>
<ellipse fill="none" stroke="black" cx="682" cy="-91" rx="40.89" ry="18"/>
<text text-anchor="middle" x="682" y="-87.3" font-family="Times,serif" font-size="14.00">Profile</text>
</g>
<!-- ApplicationRecord&#45;&gt;Profile -->
<g id="edge36" class="edge">
<title>ApplicationRecord&#45;&gt;Profile</title>
<path fill="none" stroke="black" d="M550.75,-401.74C569.74,-394.8 592.51,-386.48 613,-379 678.77,-354.98 761,-395.02 761,-325 761,-325 761,-325 761,-163 761,-135.15 733.51,-115.46 710.97,-103.98"/>
</g>
<!-- Certificate&#45;&gt;Profile -->
<g id="edge17" class="edge">
<title>Certificate&#45;&gt;Profile</title>
<path fill="none" stroke="#d8670a" d="M674.56,-222.59C676.21,-193.67 678.79,-148.33 680.44,-119.4"/>
<polygon fill="#d8670a" stroke="#d8670a" points="674.55,-222.81 669.49,-232.53 674.26,-227.8 673.98,-232.79 673.98,-232.79 673.98,-232.79 674.26,-227.8 678.47,-233.05 674.55,-222.81 674.55,-222.81"/>
<polygon fill="#d8670a" stroke="#d8670a" points="680.45,-119.17 685.51,-109.44 680.74,-114.18 681.02,-109.19 681.02,-109.19 681.02,-109.19 680.74,-114.18 676.53,-108.93 680.45,-119.17 680.45,-119.17"/>
</g>
<!-- User&#45;&gt;Conversation -->
<g id="edge25" class="edge">
<title>User&#45;&gt;Conversation</title>
<path fill="none" stroke="#2302cb" d="M224.56,-148.33C200.78,-137.57 168.27,-122.87 142.43,-111.19"/>
<ellipse fill="none" stroke="#2302cb" cx="228.48" cy="-150.1" rx="4" ry="4"/>
<polygon fill="#2302cb" stroke="#2302cb" points="142.35,-111.15 135.09,-102.93 137.8,-109.09 133.24,-107.03 133.24,-107.03 133.24,-107.03 137.8,-109.09 131.39,-111.13 142.35,-111.15 142.35,-111.15"/>
</g>
<!-- User&#45;&gt;Foundation -->
<g id="edge23" class="edge">
<title>User&#45;&gt;Foundation</title>
<path fill="none" stroke="#8b3fd8" d="M279.58,-140.73C287.68,-132.75 296.82,-123.73 305.03,-115.64"/>
<polygon fill="#8b3fd8" stroke="#8b3fd8" points="279.39,-140.92 269.11,-144.74 275.83,-144.43 272.27,-147.94 272.27,-147.94 272.27,-147.94 275.83,-144.43 275.43,-151.15 279.39,-140.92 279.39,-140.92"/>
<polygon fill="#8b3fd8" stroke="#8b3fd8" points="305.12,-115.54 315.4,-111.73 308.68,-112.03 312.24,-108.52 312.24,-108.52 312.24,-108.52 308.68,-112.03 309.08,-105.32 305.12,-115.54 305.12,-115.54"/>
</g>
<!-- User&#45;&gt;Message -->
<g id="edge24" class="edge">
<title>User&#45;&gt;Message</title>
<path fill="none" stroke="#4aea7c" d="M240.62,-140.19C226.2,-121.01 203.96,-93.5 181,-73 167.01,-60.51 149.93,-48.7 135.06,-39.33"/>
<ellipse fill="none" stroke="#4aea7c" cx="243.18" cy="-143.64" rx="4" ry="4"/>
<polygon fill="#4aea7c" stroke="#4aea7c" points="134.65,-39.08 128.51,-30 130.4,-36.45 126.14,-33.83 126.14,-33.83 126.14,-33.83 130.4,-36.45 123.78,-37.66 134.65,-39.08 134.65,-39.08"/>
</g>
<!-- User&#45;&gt;JwtToken -->
<g id="edge26" class="edge">
<title>User&#45;&gt;JwtToken</title>
<path fill="none" stroke="#de31e7" d="M292.39,-150.92C327.3,-139 380.84,-120.73 419.03,-107.69"/>
<ellipse fill="none" stroke="#de31e7" cx="288.41" cy="-152.28" rx="4" ry="4"/>
<polygon fill="#de31e7" stroke="#de31e7" points="419.41,-107.56 430.33,-108.59 424.14,-105.95 428.87,-104.33 428.87,-104.33 428.87,-104.33 424.14,-105.95 427.42,-100.07 419.41,-107.56 419.41,-107.56"/>
</g>
<!-- User&#45;&gt;User -->
<g id="edge27" class="edge">
<title>User&#45;&gt;User</title>
<path fill="none" stroke="#0f7154" d="M296.26,-170.35C303.26,-169.53 308.15,-167.41 308.15,-164 308.15,-160.88 304.05,-158.84 298,-157.89"/>
<ellipse fill="none" stroke="#0f7154" cx="291.96" cy="-170.56" rx="4" ry="4"/>
<polygon fill="#0f7154" stroke="#0f7154" points="297.94,-157.88 288.24,-152.77 292.95,-157.57 287.96,-157.26 287.96,-157.26 287.96,-157.26 292.95,-157.57 287.68,-161.75 297.94,-157.88 297.94,-157.88"/>
<text text-anchor="middle" x="337.65" y="-160.3" font-family="Times,serif" font-size="14.00">children</text>
</g>
<!-- User&#45;&gt;Profile -->
<g id="edge22" class="edge">
<title>User&#45;&gt;Profile</title>
<path fill="none" stroke="#fb213d" d="M296.27,-156.44C375.15,-143.26 552.46,-113.64 636.35,-99.63"/>
<ellipse fill="none" stroke="#fb213d" cx="292.2" cy="-157.12" rx="4" ry="4"/>
<ellipse fill="#fb213d" stroke="#fb213d" cx="640.47" cy="-98.94" rx="4" ry="4"/>
</g>
<!-- Profile&#45;&gt;Questionnaire -->
<g id="edge32" class="edge">
<title>Profile&#45;&gt;Questionnaire</title>
<path fill="none" stroke="#f884da" d="M655.33,-70.68C646.57,-64.85 636.61,-58.74 627,-54 612.39,-46.8 595.92,-40.39 580.63,-35.09"/>
<ellipse fill="none" stroke="#f884da" cx="658.76" cy="-73.01" rx="4" ry="4"/>
<ellipse fill="#f884da" stroke="#f884da" cx="576.54" cy="-33.7" rx="4" ry="4"/>
</g>
<!-- Profile&#45;&gt;GeneralInfo -->
<g id="edge29" class="edge">
<title>Profile&#45;&gt;GeneralInfo</title>
<path fill="none" stroke="#3742ad" d="M683.78,-64.79C684.25,-58.09 684.76,-50.85 685.23,-44.15"/>
<ellipse fill="none" stroke="#3742ad" cx="683.49" cy="-68.82" rx="4" ry="4"/>
<ellipse fill="#3742ad" stroke="#3742ad" cx="685.52" cy="-40.02" rx="4" ry="4"/>
</g>
<!-- Profile&#45;&gt;ParentContact -->
<g id="edge31" class="edge">
<title>Profile&#45;&gt;ParentContact</title>
<path fill="none" stroke="#c69938" d="M718.14,-74.54C743.76,-63.58 778.23,-48.84 805.22,-37.3"/>
<ellipse fill="none" stroke="#c69938" cx="714.21" cy="-76.22" rx="4" ry="4"/>
<ellipse fill="#c69938" stroke="#c69938" cx="808.95" cy="-35.7" rx="4" ry="4"/>
</g>
<!-- Profile&#45;&gt;Medication -->
<g id="edge30" class="edge">
<title>Profile&#45;&gt;Medication</title>
<path fill="none" stroke="#50d233" d="M642.79,-76.82C619.28,-69.31 588.67,-60.18 561,-54 508.79,-42.34 494.5,-46.24 442,-36 436.92,-35.01 431.66,-33.9 426.39,-32.74"/>
<ellipse fill="none" stroke="#50d233" cx="646.67" cy="-78.08" rx="4" ry="4"/>
<polygon fill="#50d233" stroke="#50d233" points="426.08,-32.67 417.32,-26.07 421.2,-31.56 416.33,-30.46 416.33,-30.46 416.33,-30.46 421.2,-31.56 415.33,-34.85 426.08,-32.67 426.08,-32.67"/>
</g>
<!-- Profile&#45;&gt;Allergy -->
<g id="edge35" class="edge">
<title>Profile&#45;&gt;Allergy</title>
<path fill="none" stroke="#f34819" d="M634.69,-84.82C562.27,-76.55 419.71,-58.94 300,-36 291.62,-34.39 282.74,-32.44 274.22,-30.43"/>
<ellipse fill="none" stroke="#f34819" cx="638.77" cy="-85.28" rx="4" ry="4"/>
<ellipse fill="#f34819" stroke="#f34819" cx="270.07" cy="-29.44" rx="4" ry="4"/>
</g>
<!-- Profile&#45;&gt;EmergencyConn -->
<g id="edge33" class="edge">
<title>Profile&#45;&gt;EmergencyConn</title>
<path fill="none" stroke="#e25cfa" d="M726.29,-80.96C785.97,-68.79 892.75,-47 962.47,-32.78"/>
<ellipse fill="none" stroke="#e25cfa" cx="722.18" cy="-81.8" rx="4" ry="4"/>
<ellipse fill="#e25cfa" stroke="#e25cfa" cx="966.44" cy="-31.97" rx="4" ry="4"/>
</g>
<!-- Profile&#45;&gt;Signature -->
<g id="edge34" class="edge">
<title>Profile&#45;&gt;Signature</title>
<path fill="none" stroke="#763ecd" d="M730.18,-86.22C812.03,-79.35 983.25,-62.94 1126,-36 1131.6,-34.94 1137.42,-33.68 1143.19,-32.33"/>
<ellipse fill="none" stroke="#763ecd" cx="726.06" cy="-86.57" rx="4" ry="4"/>
<ellipse fill="#763ecd" stroke="#763ecd" cx="1147.11" cy="-31.39" rx="4" ry="4"/>
</g>
<!-- ActiveStorage::Blob::Representable -->
<g id="node22" class="node">
<title>ActiveStorage::Blob::Representable</title>
<polygon fill="none" stroke="black" stroke-dasharray="1,5" points="974.5,-436 703.5,-436 703.5,-400 974.5,-400 974.5,-436"/>
<text text-anchor="middle" x="839" y="-414.3" font-family="Times,serif" font-size="14.00">ActiveStorage::Blob::Representable</text>
</g>
<!-- ActiveStorage::Blob::Identifiable -->
<g id="node23" class="node">
<title>ActiveStorage::Blob::Identifiable</title>
<polygon fill="none" stroke="black" stroke-dasharray="1,5" points="1241,-436 993,-436 993,-400 1241,-400 1241,-436"/>
<text text-anchor="middle" x="1117" y="-414.3" font-family="Times,serif" font-size="14.00">ActiveStorage::Blob::Identifiable</text>
</g>
<!-- ActiveStorage::Blob::Analyzable -->
<g id="node24" class="node">
<title>ActiveStorage::Blob::Analyzable</title>
<polygon fill="none" stroke="black" stroke-dasharray="1,5" points="1504.5,-436 1259.5,-436 1259.5,-400 1504.5,-400 1504.5,-436"/>
<text text-anchor="middle" x="1382" y="-414.3" font-family="Times,serif" font-size="14.00">ActiveStorage::Blob::Analyzable</text>
</g>
<!-- ActiveStorage::Blob -->
<g id="node25" class="node">
<title>ActiveStorage::Blob</title>
<ellipse fill="none" stroke="black" cx="1625" cy="-418" rx="102.88" ry="18"/>
<text text-anchor="middle" x="1625" y="-414.3" font-family="Times,serif" font-size="14.00">ActiveStorage::Blob</text>
</g>
<!-- ActiveStorage::Attachment -->
<g id="node26" class="node">
<title>ActiveStorage::Attachment</title>
<ellipse fill="none" stroke="black" cx="1882" cy="-418" rx="135.68" ry="18"/>
<text text-anchor="middle" x="1882" y="-414.3" font-family="Times,serif" font-size="14.00">ActiveStorage::Attachment</text>
</g>
<!-- ActiveStorage::Current -->
<g id="node27" class="node">
<title>ActiveStorage::Current</title>
<polygon fill="none" stroke="black" points="2294,-342 2112,-342 2112,-306 2294,-306 2294,-342"/>
<text text-anchor="middle" x="2203" y="-320.3" font-family="Times,serif" font-size="14.00">ActiveStorage::Current</text>
</g>
<!-- ActiveStorage::Filename -->
<g id="node28" class="node">
<title>ActiveStorage::Filename</title>
<polygon fill="none" stroke="black" points="2580,-436 2388,-436 2388,-400 2580,-400 2580,-436"/>
<text text-anchor="middle" x="2484" y="-414.3" font-family="Times,serif" font-size="14.00">ActiveStorage::Filename</text>
</g>
<!-- ActiveStorage::Variant -->
<g id="node29" class="node">
<title>ActiveStorage::Variant</title>
<polygon fill="none" stroke="black" points="2776,-436 2598,-436 2598,-400 2776,-400 2776,-436"/>
<text text-anchor="middle" x="2687" y="-414.3" font-family="Times,serif" font-size="14.00">ActiveStorage::Variant</text>
</g>
<!-- ActiveStorage::Filename::Parameters -->
<g id="node30" class="node">
<title>ActiveStorage::Filename::Parameters</title>
<polygon fill="none" stroke="black" points="3078,-436 2794,-436 2794,-400 3078,-400 3078,-436"/>
<text text-anchor="middle" x="2936" y="-414.3" font-family="Times,serif" font-size="14.00">ActiveStorage::Filename::Parameters</text>
</g>
<!-- ActiveStorage::Variation -->
<g id="node31" class="node">
<title>ActiveStorage::Variation</title>
<polygon fill="none" stroke="black" points="3287.5,-436 3096.5,-436 3096.5,-400 3287.5,-400 3287.5,-436"/>
<text text-anchor="middle" x="3192" y="-414.3" font-family="Times,serif" font-size="14.00">ActiveStorage::Variation</text>
</g>
<!-- ActiveStorage::Preview -->
<g id="node32" class="node">
<title>ActiveStorage::Preview</title>
<polygon fill="none" stroke="black" points="3490,-436 3306,-436 3306,-400 3490,-400 3490,-436"/>
<text text-anchor="middle" x="3398" y="-414.3" font-family="Times,serif" font-size="14.00">ActiveStorage::Preview</text>
</g>
<!-- ActiveSupport::CurrentAttributes -->
<g id="node33" class="node">
<title>ActiveSupport::CurrentAttributes</title>
<ellipse fill="none" stroke="black" cx="2203" cy="-418" rx="167.07" ry="18"/>
<text text-anchor="middle" x="2203" y="-414.3" font-family="Times,serif" font-size="14.00">ActiveSupport::CurrentAttributes</text>
</g>
<!-- ActiveSupport::CurrentAttributes&#45;&gt;ActiveStorage::Current -->
<g id="edge37" class="edge">
<title>ActiveSupport::CurrentAttributes&#45;&gt;ActiveStorage::Current</title>
<path fill="none" stroke="black" d="M2203,-399.7C2203,-383.25 2203,-358.65 2203,-342.23"/>
</g>
</g>
</svg>
